# Exported from Wings 3D 2.1.7
mtllib hexahedron.mtl
o Cube1
#8 vertices, 6 faces
v -1.00000000 -1.00000000 -1.00000000
v -1.00000000 -1.00000000 1.00000000
v -1.00000000 1.00000000 -1.00000000
v -1.00000000 1.00000000 1.00000000
v 1.00000000 -1.00000000 -1.00000000
v 1.00000000 -1.00000000 1.00000000
v 1.00000000 1.00000000 -1.00000000
v 1.00000000 1.00000000 1.00000000
vt 0.0000000e+0 0.0000000e+0
vt 0.0000000e+0 1.00000000
vt 8.3266727e-17 0.0000000e+0
vt 1.1102230e-16 1.00000000
vt 1.9428903e-16 0.0000000e+0
vt 2.2204460e-16 1.00000000
vt 3.8857806e-16 0.0000000e+0
vt 1.00000000 1.6653345e-16
vt 1.00000000 1.00000000
vt 1.00000000 1.6653345e-16
vt 1.00000000 1.00000000
vt 1.00000000 0.0000000e+0
vt 1.00000000 1.6653345e-16
vt 1.00000000 1.00000000
vn -0.57735027 -0.57735027 -0.57735027
vn -0.57735027 -0.57735027 0.57735027
vn -0.57735027 0.57735027 -0.57735027
vn -0.57735027 0.57735027 0.57735027
vn 0.57735027 -0.57735027 -0.57735027
vn 0.57735027 -0.57735027 0.57735027
vn 0.57735027 0.57735027 -0.57735027
vn 0.57735027 0.57735027 0.57735027
g Cube1_Cube1_auv
usemtl Cube1_auv
s 1
f 1/14/1 5/2/5 6/1/6 2/12/2
f 2/10/2 4/11/4 3/4/3 1/5/1
f 2/3/2 6/12/6 8/14/8 4/2/4
f 3/14/3 7/2/7 5/3/5 1/12/1
f 4/1/4 8/13/8 7/14/7 3/2/3
f 5/8/5 7/9/7 8/6/8 6/7/6
