# Exported from Wings 3D 2.1.7
mtllib icosahedron.mtl
o icosahedron1
#12 vertices, 20 faces
v 0.0000000e+0 1.90211303 0.0000000e+0
v 1.70130162 0.85065081 0.0000000e+0
v 0.52573111 0.85065081 1.61803399
v -1.37638192 0.85065081 1.00000000
v -1.37638192 0.85065081 -1.00000000
v 0.52573111 0.85065081 -1.61803399
v -1.70130162 -0.85065081 0.0000000e+0
v -0.52573111 -0.85065081 -1.61803399
v 1.37638192 -0.85065081 -1.00000000
v 1.37638192 -0.85065081 1.00000000
v -0.52573111 -0.85065081 1.61803399
v 0.0000000e+0 -1.90211303 0.0000000e+0
vt 0.0000000e+0 0.15730642
vt 9.0578396e-2 0.31503288
vt 9.1305924e-2 0.0000000e+0
vt 0.18115679 0.47275935
vt 0.18188432 0.15772646
vt 0.27246272 0.31545292
vt 0.27319024 4.2003833e-4
vt 0.36304111 0.47317938
vt 0.36376864 0.15814650
vt 0.45434704 0.31587296
vt 0.45507457 8.4007667e-4
vt 0.54492543 0.47359942
vt 0.54565296 0.15856654
vt 0.63623136 0.31629300
vt 0.63695889 1.2601150e-3
vt 0.72680976 0.47401946
vt 0.72753728 0.15898658
vt 0.81811568 0.31671304
vt 0.81884321 1.6801533e-3
vt 0.90869408 0.47443950
vt 0.90942160 0.15940661
vt 1.00000000 0.31713308
vn 2.7942283e-17 1.00000000 -1.3971142e-17
vn 0.89442719 0.44721360 0.0000000e+0
vn 0.27639320 0.44721360 0.85065081
vn -0.72360680 0.44721360 0.52573111
vn -0.72360680 0.44721360 -0.52573111
vn 0.27639320 0.44721360 -0.85065081
vn -0.89442719 -0.44721360 0.0000000e+0
vn -0.27639320 -0.44721360 -0.85065081
vn 0.72360680 -0.44721360 -0.52573111
vn 0.72360680 -0.44721360 0.52573111
vn -0.27639320 -0.44721360 0.85065081
vn -4.1913425e-17 -1.00000000 0.0000000e+0
g icosahedron1_icosahedron1_auv
usemtl icosahedron1_auv
s 1
f 1/4/1 3/2/3 2/6/2
f 1/20/1 4/18/4 3/22/3
f 1/16/1 5/14/5 4/18/4
f 1/12/1 6/10/6 5/14/5
f 2/6/2 6/10/6 1/8/1
f 2/6/2 9/9/9 6/10/6
f 2/6/2 10/5/10 9/9/9
f 3/2/3 10/5/10 2/6/2
f 3/2/3 11/1/11 10/5/10
f 4/18/4 11/21/11 3/22/3
f 5/14/5 7/17/7 4/18/4
f 5/14/5 8/13/8 7/17/7
f 6/10/6 8/13/8 5/14/5
f 6/10/6 9/9/9 8/13/8
f 7/17/7 11/21/11 4/18/4
f 7/17/7 12/19/12 11/21/11
f 8/13/8 12/15/12 7/17/7
f 9/9/9 12/11/12 8/13/8
f 10/5/10 12/7/12 9/9/9
f 11/1/11 12/3/12 10/5/10
