# Exported from Wings 3D 2.1.7
mtllib octohedron.mtl
o octohedron1
#6 vertices, 8 faces
v 2.00000000 0.0000000e+0 0.0000000e+0
v -2.00000000 0.0000000e+0 0.0000000e+0
v 0.0000000e+0 2.00000000 0.0000000e+0
v 0.0000000e+0 -2.00000000 0.0000000e+0
v 0.0000000e+0 0.0000000e+0 2.00000000
v 0.0000000e+0 0.0000000e+0 -2.00000000
vt 0.0000000e+0 0.0000000e+0
vt 8.3266727e-16 0.33333333
vt 0.28867513 0.16666667
vt 0.28867513 0.50000000
vt 0.57735027 0.0000000e+0
vt 0.57735027 0.33333333
vt 0.57735027 0.66666667
vt 0.57735027 1.00000000
vt 0.86602540 0.50000000
vt 0.86602540 0.83333333
vn 1.00000000 0.0000000e+0 0.0000000e+0
vn -1.00000000 0.0000000e+0 0.0000000e+0
vn 0.0000000e+0 1.00000000 0.0000000e+0
vn 0.0000000e+0 -1.00000000 0.0000000e+0
vn 0.0000000e+0 0.0000000e+0 1.00000000
vn 0.0000000e+0 0.0000000e+0 -1.00000000
g octohedron1_octohedron1_auv
usemtl octohedron1_auv
s 1
f 1/4/1 5/6/5 4/7/4
f 1/4/1 6/2/6 3/3/3
f 2/5/2 5/6/5 3/3/3
f 2/9/2 6/10/6 4/7/4
f 3/3/3 5/6/5 1/4/1
f 3/3/3 6/2/6 2/1/2
f 4/7/4 5/6/5 2/9/2
f 4/7/4 6/10/6 1/8/1
